<?xml version="1.0" encoding="utf-8"?>
<!-- Generator: Adobe Illustrator 21.0.0, SVG Export Plug-In . SVG Version: 6.00 Build 0)  -->
<svg version="1.1" id="ROW_2" xmlns="http://www.w3.org/2000/svg" xmlns:xlink="http://www.w3.org/1999/xlink" x="0px" y="0px"
	 viewBox="0 0 69 77" style="enable-background:new 0 0 69 77;" xml:space="preserve">
<style type="text/css">
	.st0{fill-rule:evenodd;clip-rule:evenodd;fill:#0082CB;}
</style>
<path id="MAGNIFYING_GLASS_2_" class="st0" d="M62.2,61.8c1.1,1.1,1.8,2.6,1.8,4.2c0,3.3-2.7,6-6,6c-1.7,0-3.2-0.7-4.2-1.8l0,0
	L36.2,52.7C32.6,54.8,28.4,56,24,56C10.7,56,0,45.3,0,32S10.7,8,24,8s24,10.7,24,24c0,4.4-1.2,8.6-3.3,12.2L62.2,61.8L62.2,61.8z
	 M24,14c-9.9,0-18,8.1-18,18c0,9.9,8.1,18,18,18c9.9,0,18-8.1,18-18C42,22.1,33.9,14,24,14z"/>
</svg>
